<svg xmlns="http://www.w3.org/2000/svg" viewBox="0 0 265.06 265.06"><defs><style>.cls-1{fill:#e8e8e8;}.cls-2{fill:#052d3e;}.cls-3{fill:#d15f20;}</style></defs><title>Asset 2</title><g id="Layer_2" data-name="Layer 2"><g id="Layer_1-2" data-name="Layer 1"><circle class="cls-1" cx="132.53" cy="132.53" r="132.53"/><path class="cls-2" d="M85.38,52.79q-25,0-54,38.11a3.21,3.21,0,0,0-.61,1.34l-1.29,6.6a3.2,3.2,0,0,0,5.75,2.45Q52.73,76.66,68.83,76.66q19.88,0,31.49,36.85T111.94,214l-.67,17.76a3.19,3.19,0,0,0,3.92,3.22l26.28-41Q141.47,52.77,85.38,52.79Z"/><path class="cls-2" d="M198.69,100.93a12.41,12.41,0,0,1-4.39-.78L123,211.48l-4.81,8.23-.36-.08-1.53,7.07,3.7.81,81.52-126.87A14.17,14.17,0,0,1,198.69,100.93Z"/><circle class="cls-3" cx="201.24" cy="80.11" r="17.93"/></g></g></svg>